<svg version="1.2" xmlns="http://www.w3.org/2000/svg" viewBox="0 0 300 301" width="300" height="301">
	<title>logo-svg</title>
	<defs>
		<clipPath clipPathUnits="userSpaceOnUse" id="cp1">
			<path d="m34.08 9.29h236.25v291.71h-236.25z"/>
		</clipPath>
	</defs>
	<style>
		.s0 { fill: #068f87 } 
	</style>
	<g id="Clip-Path" clip-path="url(#cp1)">
		<g id="Layer">
			<path id="Layer" class="s0" d="m152.2 9.3c32.6 0 62.1 13.2 83.5 34.5 21.4 21.4 34.6 50.9 34.6 83.4 0 32.6-13.2 62.1-34.6 83.4-9.9 9.9-21.5 18-34.3 23.9v35h-21v-161h21v102.4c7.1-4.1 13.7-9.2 19.5-15 17.6-17.6 28.5-41.9 28.5-68.7 0-26.7-10.9-51-28.5-68.6-17.6-17.5-41.9-28.4-68.7-28.4-26.8 0-51.1 10.9-68.7 28.4-17.6 17.6-28.5 41.9-28.5 68.6 0 26.8 10.9 51.1 28.5 68.7 5.8 5.8 12.4 10.9 19.5 15v-102.4h21v161h-21v-35c-12.8-5.9-24.4-14-34.3-23.9-21.4-21.3-34.6-50.8-34.6-83.4 0-32.5 13.2-62 34.6-83.4 21.4-21.3 50.9-34.5 83.5-34.5zm-10.5 291.7v-224.1h21v224.1z"/>
		</g>
	</g>
</svg>