<svg xmlns="http://www.w3.org/2000/svg" xmlns:xlink="http://www.w3.org/1999/xlink" width="400" zoomAndPan="magnify" viewBox="0 0 300 299.999988" height="400" preserveAspectRatio="xMidYMid meet" version="1.0"><defs><clipPath id="7fc76dc16b"><path d="M 34.078125 8.289062 L 270.328125 8.289062 L 270.328125 300 L 34.078125 300 Z M 34.078125 8.289062 " clip-rule="nonzero"/></clipPath></defs><g clip-path="url(#7fc76dc16b)"><path fill="#303030" d="M 152.203125 8.289062 C 184.8125 8.289062 214.339844 21.496094 235.714844 42.839844 C 257.089844 64.1875 270.3125 93.675781 270.3125 126.242188 C 270.3125 158.8125 257.089844 188.296875 235.714844 209.644531 C 225.84375 219.503906 214.234375 227.625 201.386719 233.511719 L 201.386719 268.453125 L 180.445312 268.453125 L 180.445312 107.464844 L 201.386719 107.464844 L 201.386719 209.945312 C 208.53125 205.753906 215.085938 200.671875 220.910156 194.859375 C 238.492188 177.296875 249.371094 153.039062 249.371094 126.242188 C 249.371094 99.453125 238.492188 75.191406 220.910156 57.628906 C 203.324219 40.066406 179.03125 29.203125 152.203125 29.203125 C 125.375 29.203125 101.085938 40.066406 83.5 57.628906 C 65.917969 75.191406 55.039062 99.453125 55.039062 126.242188 C 55.039062 153.039062 65.917969 177.296875 83.5 194.859375 C 89.324219 200.671875 95.882812 205.753906 103.023438 209.945312 L 103.023438 107.464844 L 123.964844 107.464844 L 123.964844 268.453125 L 103.023438 268.453125 L 103.023438 233.511719 C 90.175781 227.628906 78.566406 219.503906 68.695312 209.648438 C 47.320312 188.296875 34.097656 158.8125 34.097656 126.242188 C 34.097656 93.675781 47.320312 64.1875 68.695312 42.839844 C 90.070312 21.496094 119.597656 8.289062 152.203125 8.289062 Z M 141.734375 300.039062 L 141.734375 75.878906 L 162.675781 75.878906 L 162.675781 300.039062 Z M 141.734375 300.039062 " fill-opacity="1" fill-rule="nonzero"/></g></svg>