<svg xmlns="http://www.w3.org/2000/svg" xmlns:xlink="http://www.w3.org/1999/xlink" width="400" zoomAndPan="magnify" viewBox="0 0 300 299.999988" height="400" preserveAspectRatio="xMidYMid meet" version="1.0"><defs><clipPath id="e724dca157"><path d="M 34.078125 8.289062 L 270 8.289062 L 270 300 L 34.078125 300 Z M 34.078125 8.289062 " clip-rule="nonzero"/></clipPath></defs><g clip-path="url(#e724dca157)"><path fill="#068f87" d="M 152.035156 8.289062 C 184.597656 8.289062 214.082031 21.492188 235.425781 42.835938 C 256.769531 64.179688 269.972656 93.664062 269.972656 126.222656 C 269.972656 158.789062 256.769531 188.269531 235.425781 209.613281 C 225.566406 219.472656 213.976562 227.589844 201.144531 233.472656 L 201.144531 268.414062 L 180.238281 268.414062 L 180.238281 107.449219 L 201.144531 107.449219 L 201.144531 209.914062 C 208.277344 205.722656 214.824219 200.644531 220.640625 194.832031 C 238.199219 177.269531 249.0625 153.015625 249.0625 126.222656 C 249.0625 99.4375 238.199219 75.179688 220.640625 57.621094 C 203.082031 40.058594 178.824219 29.199219 152.035156 29.199219 C 125.246094 29.199219 100.988281 40.058594 83.429688 57.621094 C 65.871094 75.179688 55.007812 99.4375 55.007812 126.222656 C 55.007812 153.015625 65.871094 177.269531 83.429688 194.832031 C 89.242188 200.640625 95.792969 205.722656 102.921875 209.914062 L 102.921875 107.449219 L 123.832031 107.449219 L 123.832031 268.414062 L 102.921875 268.414062 L 102.921875 233.472656 C 90.09375 227.59375 78.5 219.472656 68.644531 209.613281 C 47.300781 188.269531 34.097656 158.789062 34.097656 126.222656 C 34.097656 93.664062 47.300781 64.179688 68.644531 42.835938 C 89.988281 21.492188 119.472656 8.289062 152.035156 8.289062 Z M 141.578125 299.992188 L 141.578125 75.867188 L 162.492188 75.867188 L 162.492188 299.992188 Z M 141.578125 299.992188 " fill-opacity="1" fill-rule="nonzero"/></g></svg>